<?xml version="1.0" encoding="UTF-8"?>
<svg id="Layer_1" data-name="Layer 1" xmlns="http://www.w3.org/2000/svg" viewBox="0 0 131 158.2">
  <defs>
    <style>
      .cls-1 {
        fill: #2c2c30;
      }
    </style>
  </defs>
  <g>
    <path class="cls-1" d="M2.37,157.37v-48.06h7.36c3.3,0,4.83.95,5.84,3.81,1.02,2.86,1.27,5.65,1.27,20.19,0,15.3-.32,17.59-1.21,20.38-.95,2.86-2.41,3.68-5.9,3.68H2.37ZM9.67,153.81c1.71,0,2.48-.51,2.92-2.29.57-2.29.76-4.38.76-18.22s-.06-15.75-.76-18.03c-.57-1.84-1.27-2.48-2.92-2.48h-3.87v41.01h3.87Z"/>
    <path class="cls-1" d="M20.46,157.37v-48.06h11.68v3.49h-8.25v18.41h8.13v3.36h-8.13v19.17h8.19v3.62h-11.62Z"/>
    <path class="cls-1" d="M47.63,157.37c-7.68-23.11-7.94-24-8.13-24.95h-.25c.06,1.02.06,1.9.06,3.81v21.14h-3.49v-48.06h3.49v17.46c0,1.78,0,2.67-.06,3.68h.25c.25-1.02.51-1.78,7.94-21.14h3.56v.32l-8.38,21.59,8.7,25.9v.25h-3.68Z"/>
    <path class="cls-1" d="M54.23,157.37v-48.06h11.68v3.49h-8.25v18.41h8.13v3.36h-8.13v19.17h8.19v3.62h-11.62Z"/>
    <path class="cls-1" d="M81.91,157.37c-7.43-32.51-8.38-36.12-9.02-39.68h-.25c.13,3.62.13,6.41.13,11.49v28.19h-3.24v-48.06h4.51c5.78,27.43,6.22,29.9,6.48,31.68h.25c-.06-1.84-.13-4.25-.13-8.51v-23.17h3.24v48.06h-1.97Z"/>
    <path class="cls-1" d="M91.75,157.37v-44.57h-5.21v-3.49h13.78v3.49h-5.08v44.57h-3.49Z"/>
    <path class="cls-1" d="M109.65,109.31h3.49v23.3c0,14.6-.32,18.66-1.27,21.52-.95,2.92-2.35,4.06-5.97,4.06-3.3,0-4.89-1.02-5.84-4-.7-2.22-1.02-5.78-1.02-10.92,0-2.6.06-3.36.19-4.32h3.17c-.13.95-.13,1.78-.13,4.32,0,3.56.06,6.54.7,8.57.64,2.1,1.27,2.73,2.86,2.73,1.84,0,2.48-.63,2.92-2.48.51-2.41.89-5.97.89-19.43v-23.36Z"/>
    <path class="cls-1" d="M116.95,157.37v-48.06h11.68v3.49h-8.25v18.41h8.13v3.36h-8.13v19.17h8.19v3.62h-11.62Z"/>
  </g>
  <g>
    <g>
      <g>
        <line class="cls-1" x1="11.03" y1="21.14" x2="79.94" y2="80.07"/>
        <rect class="cls-1" x="43.86" y="5.27" width="3.25" height="90.67" transform="translate(-22.54 52.28) rotate(-49.46)"/>
      </g>
      <g>
        <line class="cls-1" x1="119.97" y1="21.14" x2="51.06" y2="80.07"/>
        <rect class="cls-1" x="40.18" y="48.98" width="90.67" height="3.25" transform="translate(-12.36 67.74) rotate(-40.54)"/>
      </g>
      <g>
        <line class="cls-1" x1="1.06" y1="23.53" x2="73.54" y2="85.51"/>
        <rect class="cls-1" x="35.67" y="6.84" width="3.25" height="95.37" transform="translate(-28.38 47.43) rotate(-49.46)"/>
      </g>
      <g>
        <line class="cls-1" x1="129.95" y1="23.53" x2="57.47" y2="85.51"/>
        <rect class="cls-1" x="46.02" y="52.9" width="95.37" height="3.25" transform="translate(-12.94 74) rotate(-40.54)"/>
      </g>
    </g>
    <g>
      <g>
        <line class="cls-1" x1="119.97" y1="65.61" x2="51.06" y2="6.68"/>
        <rect class="cls-1" x="83.89" y="-9.19" width="3.25" height="90.67" transform="translate(2.47 77.64) rotate(-49.46)"/>
      </g>
      <g>
        <line class="cls-1" x1="11.03" y1="65.61" x2="79.94" y2="6.68"/>
        <rect class="cls-1" x=".15" y="34.52" width="90.67" height="3.25" transform="translate(-12.57 38.24) rotate(-40.54)"/>
      </g>
      <g>
        <line class="cls-1" x1="129.95" y1="63.22" x2="57.47" y2="1.24"/>
        <rect class="cls-1" x="92.08" y="-15.46" width="3.25" height="95.37" transform="translate(8.31 82.5) rotate(-49.46)"/>
      </g>
      <g>
        <line class="cls-1" x1="1.06" y1="63.22" x2="73.54" y2="1.24"/>
        <rect class="cls-1" x="-10.39" y="30.6" width="95.37" height="3.25" transform="translate(-11.99 31.98) rotate(-40.54)"/>
      </g>
    </g>
  </g>
</svg>